<?xml version="1.0" encoding="utf-8"?>
<!-- Generator: Adobe Illustrator 17.0.0, SVG Export Plug-In . SVG Version: 6.00 Build 0)  -->
<!DOCTYPE svg PUBLIC "-//W3C//DTD SVG 1.1//EN" "http://www.w3.org/Graphics/SVG/1.1/DTD/svg11.dtd">
<svg version="1.1" id="Layer_1" xmlns="http://www.w3.org/2000/svg" xmlns:xlink="http://www.w3.org/1999/xlink" x="0px" y="0px"
	 width="620px" height="400px" viewBox="0 0 620 400" enable-background="new 0 0 620 400" xml:space="preserve">
<g id="imagenes">
</g>
<g id="iconos">
	<path fill="#5E5E5E" d="M491.25,337.5H472.5v-18.75h18.75V300H386.869l-55.95-48.681c0.413-0.863,0.794-1.75,1.144-2.675
		c4.038-10.644,3.688-20.1,11.831-20.65c9.2-0.619,8.763-14.006-4.431-13.619c-4.9,0.144-10.538,2.05-16.719,11.2
		c-2.275,3.362-4.2,8.3-7.369,12.219l-6.356-5.531c-2.35-2.044-5.856-2.044-8.2,0l-8.8,7.656
		c-4.838-4.475-6.938-12.175-6.938-20.619c0-9.563,5.275-21.038,14.831-21.038s16.337,1.919,16.337,1.919V156.25H310V0h-12.5v156.25
		h-6.25v28.95c-18.75,1.169-25.487,15.619-25.487,36.337c0,11.956,2.231,24.412,9.65,32.831L222.975,300H141.25v18.75h12.5v18.75
		h-12.5v18.75h350V337.5z M285.944,261.775c4.244,1.737,9.269,2.763,15.325,2.763c10.038,0,16.638-1.475,21.212-3.994L367.831,300
		H242.012L285.944,261.775z"/>
</g>
</svg>
